STARTFONT 2.1
COMMENT  
COMMENT  WARNING:  This bdf file was generated from an X server using
COMMENT  xbdfdump.  The resulting font is subject to the same copyright,
COMMENT  license, and trademark restrictions as the original font.  The
COMMENT  author and distributors of xbdfdump disclaim all liability for
COMMENT  misuse of the program or its output.
COMMENT  
FONT -phaisarn-angsana-medium-r-normal--10-100-75-75-p-75-tis620-0
SIZE 10 75 75
FONTBOUNDINGBOX 23 27 -7 -8
STARTPROPERTIES 27
FOUNDRY "Phaisarn"
FAMILY_NAME "Angsana"
WEIGHT_NAME "medium"
SLANT "r"
SETWIDTH_NAME "normal"
ADD_STYLE_NAME ""
PIXEL_SIZE 10
POINT_SIZE 100
RESOLUTION_X 75
RESOLUTION_Y 75
SPACING "p"
AVERAGE_WIDTH 75
CHARSET_REGISTRY "tis620"
CHARSET_ENCODING "0"
COPYRIGHT "Angsana by Pt-TITech 1997"
RAW_PIXELSIZE 1000
RAW_POINTSIZE 723
RAW_ASCENT 736
RAW_DESCENT 0
RAW_AVERAGE_WIDTH 2994
FACE_NAME "Angsana"
WEIGHT 10
X_HEIGHT 6
QUAD_WIDTH 8
FONT_ASCENT 15
FONT_DESCENT 10
_XMBDFED_INFO "Edited with xmbdfed 4.5."
ENDPROPERTIES
CHARS 195
STARTCHAR space
ENCODING 32
SWIDTH 288 0
DWIDTH 3 0
BBX 0 0 0 0
BITMAP
ENDCHAR
STARTCHAR exclam
ENCODING 33
SWIDTH 384 0
DWIDTH 4 0
BBX 1 9 1 0
BITMAP
80
80
80
80
80
80
80
00
80
ENDCHAR
STARTCHAR quotedbl
ENCODING 34
SWIDTH 480 0
DWIDTH 5 0
BBX 3 4 1 5
BITMAP
A0
A0
A0
A0
ENDCHAR
STARTCHAR numbersign
ENCODING 35
SWIDTH 576 0
DWIDTH 6 0
BBX 5 9 1 0
BITMAP
50
50
F8
50
50
50
F8
50
50
ENDCHAR
STARTCHAR dollar
ENCODING 36
SWIDTH 576 0
DWIDTH 6 0
BBX 5 9 1 0
BITMAP
70
A8
A0
60
30
28
A8
70
20
ENDCHAR
STARTCHAR percent
ENCODING 37
SWIDTH 1056 0
DWIDTH 11 0
BBX 10 9 0 0
BITMAP
2080
5100
5200
5200
2480
0940
0940
1140
2080
ENDCHAR
STARTCHAR ampersand
ENCODING 38
SWIDTH 960 0
DWIDTH 10 0
BBX 10 9 0 0
BITMAP
1800
2400
2400
2400
1B80
2900
4600
4440
3B80
ENDCHAR
STARTCHAR apostrophe
ENCODING 39
SWIDTH 192 0
DWIDTH 2 0
BBX 1 4 1 5
BITMAP
80
80
80
80
ENDCHAR
STARTCHAR parenleft
ENCODING 40
SWIDTH 384 0
DWIDTH 4 0
BBX 4 12 1 -3
BITMAP
20
40
40
80
80
80
80
80
80
40
40
20
ENDCHAR
STARTCHAR parenright
ENCODING 41
SWIDTH 384 0
DWIDTH 4 0
BBX 3 12 1 -3
BITMAP
80
40
40
20
20
20
20
20
20
40
40
80
ENDCHAR
STARTCHAR asterisk
ENCODING 42
SWIDTH 576 0
DWIDTH 6 0
BBX 5 5 1 4
BITMAP
20
A8
70
A8
20
ENDCHAR
STARTCHAR plus
ENCODING 43
SWIDTH 672 0
DWIDTH 7 0
BBX 5 5 1 2
BITMAP
20
20
F8
20
20
ENDCHAR
STARTCHAR comma
ENCODING 44
SWIDTH 288 0
DWIDTH 3 0
BBX 2 3 1 -2
BITMAP
C0
40
80
ENDCHAR
STARTCHAR minus
ENCODING 45
SWIDTH 384 0
DWIDTH 4 0
BBX 3 1 1 2
BITMAP
E0
ENDCHAR
STARTCHAR period
ENCODING 46
SWIDTH 288 0
DWIDTH 3 0
BBX 1 1 1 0
BITMAP
80
ENDCHAR
STARTCHAR slash
ENCODING 47
SWIDTH 384 0
DWIDTH 4 0
BBX 4 9 0 0
BITMAP
10
10
20
20
20
40
40
40
80
ENDCHAR
STARTCHAR 0
ENCODING 48
SWIDTH 576 0
DWIDTH 6 0
BBX 6 9 0 0
BITMAP
30
48
84
84
84
84
84
48
30
ENDCHAR
STARTCHAR 1
ENCODING 49
SWIDTH 576 0
DWIDTH 6 0
BBX 3 9 2 0
BITMAP
40
C0
40
40
40
40
40
40
E0
ENDCHAR
STARTCHAR 2
ENCODING 50
SWIDTH 576 0
DWIDTH 6 0
BBX 5 9 1 0
BITMAP
70
88
08
10
20
40
80
88
F8
ENDCHAR
STARTCHAR 3
ENCODING 51
SWIDTH 576 0
DWIDTH 6 0
BBX 4 9 1 0
BITMAP
60
90
10
20
70
10
10
90
E0
ENDCHAR
STARTCHAR 4
ENCODING 52
SWIDTH 576 0
DWIDTH 6 0
BBX 5 9 1 0
BITMAP
10
30
30
50
50
90
F8
10
10
ENDCHAR
STARTCHAR 5
ENCODING 53
SWIDTH 576 0
DWIDTH 6 0
BBX 5 9 1 0
BITMAP
78
40
80
E0
10
08
08
90
60
ENDCHAR
STARTCHAR 6
ENCODING 54
SWIDTH 576 0
DWIDTH 6 0
BBX 5 9 1 0
BITMAP
30
40
80
A0
D0
88
88
50
20
ENDCHAR
STARTCHAR 7
ENCODING 55
SWIDTH 576 0
DWIDTH 6 0
BBX 5 9 1 0
BITMAP
F8
88
08
10
10
10
20
20
20
ENDCHAR
STARTCHAR 8
ENCODING 56
SWIDTH 576 0
DWIDTH 6 0
BBX 5 9 1 0
BITMAP
70
88
88
50
70
88
88
88
70
ENDCHAR
STARTCHAR 9
ENCODING 57
SWIDTH 576 0
DWIDTH 6 0
BBX 5 9 1 0
BITMAP
70
88
88
88
98
68
08
10
60
ENDCHAR
STARTCHAR colon
ENCODING 58
SWIDTH 384 0
DWIDTH 4 0
BBX 1 6 2 0
BITMAP
80
00
00
00
00
80
ENDCHAR
STARTCHAR semicolon
ENCODING 59
SWIDTH 384 0
DWIDTH 4 0
BBX 2 8 1 -2
BITMAP
80
00
00
00
00
80
40
80
ENDCHAR
STARTCHAR less
ENCODING 60
SWIDTH 672 0
DWIDTH 7 0
BBX 6 6 1 1
BITMAP
04
38
C0
C0
38
04
ENDCHAR
STARTCHAR equal
ENCODING 61
SWIDTH 672 0
DWIDTH 7 0
BBX 6 3 1 3
BITMAP
FC
00
FC
ENDCHAR
STARTCHAR greater
ENCODING 62
SWIDTH 672 0
DWIDTH 7 0
BBX 6 6 1 1
BITMAP
80
70
0C
0C
70
80
ENDCHAR
STARTCHAR question
ENCODING 63
SWIDTH 576 0
DWIDTH 6 0
BBX 4 9 1 0
BITMAP
60
90
D0
10
20
20
20
00
20
ENDCHAR
STARTCHAR at
ENCODING 64
SWIDTH 1152 0
DWIDTH 12 0
BBX 11 12 1 -3
BITMAP
1E00
2100
4080
CD40
9340
A240
A240
A680
5B00
4040
2180
1E00
ENDCHAR
STARTCHAR A
ENCODING 65
SWIDTH 864 0
DWIDTH 9 0
BBX 9 9 0 0
BITMAP
0800
0C00
0C00
1400
1200
3E00
2300
4100
E380
ENDCHAR
STARTCHAR B
ENCODING 66
SWIDTH 864 0
DWIDTH 9 0
BBX 8 9 0 0
BITMAP
FC
46
42
44
7C
46
42
42
FC
ENDCHAR
STARTCHAR C
ENCODING 67
SWIDTH 864 0
DWIDTH 9 0
BBX 9 9 0 0
BITMAP
3D00
6700
C100
8000
8000
8000
C180
6300
3E00
ENDCHAR
STARTCHAR D
ENCODING 68
SWIDTH 864 0
DWIDTH 9 0
BBX 8 9 0 0
BITMAP
FC
46
43
41
41
41
43
46
FC
ENDCHAR
STARTCHAR E
ENCODING 69
SWIDTH 768 0
DWIDTH 8 0
BBX 8 9 0 0
BITMAP
FC
42
40
42
7E
42
40
41
FE
ENDCHAR
STARTCHAR F
ENCODING 70
SWIDTH 672 0
DWIDTH 7 0
BBX 8 9 0 0
BITMAP
FE
41
40
44
7C
44
40
40
E0
ENDCHAR
STARTCHAR G
ENCODING 71
SWIDTH 864 0
DWIDTH 9 0
BBX 9 9 0 0
BITMAP
3E80
6380
C080
8000
8380
8100
C100
6100
3E80
ENDCHAR
STARTCHAR H
ENCODING 72
SWIDTH 864 0
DWIDTH 9 0
BBX 9 9 0 0
BITMAP
E380
4100
4100
4100
7F00
4100
4100
4100
E380
ENDCHAR
STARTCHAR I
ENCODING 73
SWIDTH 384 0
DWIDTH 4 0
BBX 3 9 1 0
BITMAP
E0
40
40
40
40
40
40
40
E0
ENDCHAR
STARTCHAR J
ENCODING 74
SWIDTH 480 0
DWIDTH 5 0
BBX 4 9 1 0
BITMAP
70
20
20
20
20
20
20
A0
C0
ENDCHAR
STARTCHAR K
ENCODING 75
SWIDTH 864 0
DWIDTH 9 0
BBX 9 9 0 0
BITMAP
E700
4200
4400
5800
7000
4800
4400
4300
E780
ENDCHAR
STARTCHAR L
ENCODING 76
SWIDTH 768 0
DWIDTH 8 0
BBX 9 9 0 0
BITMAP
F000
4000
4000
4000
4000
4000
4080
4100
FF00
ENDCHAR
STARTCHAR M
ENCODING 77
SWIDTH 1152 0
DWIDTH 12 0
BBX 11 9 0 0
BITMAP
E060
60C0
70C0
5140
5940
4A40
4E40
4440
E4E0
ENDCHAR
STARTCHAR N
ENCODING 78
SWIDTH 864 0
DWIDTH 9 0
BBX 9 9 0 0
BITMAP
E380
6100
7100
5900
4900
4D00
4700
4300
E380
ENDCHAR
STARTCHAR O
ENCODING 79
SWIDTH 864 0
DWIDTH 9 0
BBX 9 9 0 0
BITMAP
1C00
6300
4100
8080
8080
8080
4100
6300
1C00
ENDCHAR
STARTCHAR P
ENCODING 80
SWIDTH 672 0
DWIDTH 7 0
BBX 7 9 0 0
BITMAP
F8
46
42
46
7C
40
40
40
E0
ENDCHAR
STARTCHAR Q
ENCODING 81
SWIDTH 864 0
DWIDTH 9 0
BBX 9 12 0 -3
BITMAP
1C00
6300
4100
8080
8080
8080
8080
4100
6300
1C00
0600
0180
ENDCHAR
STARTCHAR R
ENCODING 82
SWIDTH 864 0
DWIDTH 9 0
BBX 8 9 0 0
BITMAP
F8
46
42
46
78
48
44
42
E7
ENDCHAR
STARTCHAR S
ENCODING 83
SWIDTH 672 0
DWIDTH 7 0
BBX 6 9 1 0
BITMAP
74
8C
84
60
30
08
84
C4
B8
ENDCHAR
STARTCHAR T
ENCODING 84
SWIDTH 768 0
DWIDTH 8 0
BBX 8 9 0 0
BITMAP
FE
92
10
10
10
10
10
10
38
ENDCHAR
STARTCHAR U
ENCODING 85
SWIDTH 864 0
DWIDTH 9 0
BBX 9 9 0 0
BITMAP
E380
4100
4100
4100
4100
4100
4100
2200
1C00
ENDCHAR
STARTCHAR V
ENCODING 86
SWIDTH 864 0
DWIDTH 9 0
BBX 9 9 0 0
BITMAP
F380
6100
2100
2200
1200
1200
0C00
0C00
0C00
ENDCHAR
STARTCHAR W
ENCODING 87
SWIDTH 1152 0
DWIDTH 12 0
BBX 12 9 0 0
BITMAP
EE70
4420
4620
2640
2A40
2B80
1980
1880
0880
ENDCHAR
STARTCHAR X
ENCODING 88
SWIDTH 864 0
DWIDTH 9 0
BBX 9 9 0 0
BITMAP
F380
6100
3200
1400
0800
1400
2200
4300
E780
ENDCHAR
STARTCHAR Y
ENCODING 89
SWIDTH 864 0
DWIDTH 9 0
BBX 9 9 0 0
BITMAP
F380
6100
3200
1400
0C00
0800
0800
0800
1C00
ENDCHAR
STARTCHAR Z
ENCODING 90
SWIDTH 768 0
DWIDTH 8 0
BBX 8 9 1 0
BITMAP
FE
82
84
08
10
20
42
82
FE
ENDCHAR
STARTCHAR bracketleft
ENCODING 91
SWIDTH 384 0
DWIDTH 4 0
BBX 3 12 1 -3
BITMAP
E0
80
80
80
80
80
80
80
80
80
80
E0
ENDCHAR
STARTCHAR backslash
ENCODING 92
SWIDTH 384 0
DWIDTH 4 0
BBX 4 9 0 0
BITMAP
80
80
40
40
40
20
20
20
10
ENDCHAR
STARTCHAR bracketright
ENCODING 93
SWIDTH 384 0
DWIDTH 4 0
BBX 3 12 0 -3
BITMAP
E0
20
20
20
20
20
20
20
20
20
20
E0
ENDCHAR
STARTCHAR asciicircum
ENCODING 94
SWIDTH 576 0
DWIDTH 6 0
BBX 5 5 1 4
BITMAP
20
20
50
88
88
ENDCHAR
STARTCHAR underscore
ENCODING 95
SWIDTH 576 0
DWIDTH 6 0
BBX 6 1 0 -3
BITMAP
FC
ENDCHAR
STARTCHAR grave
ENCODING 96
SWIDTH 384 0
DWIDTH 4 0
BBX 2 2 1 7
BITMAP
80
40
ENDCHAR
STARTCHAR a
ENCODING 97
SWIDTH 576 0
DWIDTH 6 0
BBX 6 6 0 0
BITMAP
30
48
38
48
58
24
ENDCHAR
STARTCHAR b
ENCODING 98
SWIDTH 576 0
DWIDTH 6 0
BBX 6 9 0 0
BITMAP
C0
40
40
70
48
48
48
48
70
ENDCHAR
STARTCHAR c
ENCODING 99
SWIDTH 576 0
DWIDTH 6 0
BBX 6 6 0 0
BITMAP
30
48
40
40
48
30
ENDCHAR
STARTCHAR d
ENCODING 100
SWIDTH 576 0
DWIDTH 6 0
BBX 6 9 0 0
BITMAP
0C
04
04
34
4C
44
44
4C
34
ENDCHAR
STARTCHAR e
ENCODING 101
SWIDTH 576 0
DWIDTH 6 0
BBX 6 6 0 0
BITMAP
38
44
7C
40
44
38
ENDCHAR
STARTCHAR f
ENCODING 102
SWIDTH 384 0
DWIDTH 4 0
BBX 5 9 1 0
BITMAP
30
40
40
E0
40
40
40
40
E0
ENDCHAR
STARTCHAR g
ENCODING 103
SWIDTH 576 0
DWIDTH 6 0
BBX 5 9 1 -3
BITMAP
78
90
90
90
60
70
88
88
70
ENDCHAR
STARTCHAR h
ENCODING 104
SWIDTH 576 0
DWIDTH 6 0
BBX 6 9 0 0
BITMAP
C0
40
40
70
48
48
48
48
EC
ENDCHAR
STARTCHAR i
ENCODING 105
SWIDTH 384 0
DWIDTH 4 0
BBX 3 9 0 0
BITMAP
40
00
00
C0
40
40
40
40
E0
ENDCHAR
STARTCHAR j
ENCODING 106
SWIDTH 384 0
DWIDTH 4 0
BBX 4 12 -1 -3
BITMAP
20
00
00
20
20
20
20
20
20
20
20
C0
ENDCHAR
STARTCHAR k
ENCODING 107
SWIDTH 576 0
DWIDTH 6 0
BBX 7 9 0 0
BITMAP
C0
40
40
58
50
60
50
48
CC
ENDCHAR
STARTCHAR l
ENCODING 108
SWIDTH 384 0
DWIDTH 4 0
BBX 3 9 0 0
BITMAP
C0
40
40
40
40
40
40
40
E0
ENDCHAR
STARTCHAR m
ENCODING 109
SWIDTH 960 0
DWIDTH 10 0
BBX 10 6 0 0
BITMAP
DB00
6D00
4900
4900
4900
ED80
ENDCHAR
STARTCHAR n
ENCODING 110
SWIDTH 576 0
DWIDTH 6 0
BBX 7 6 0 0
BITMAP
D8
64
44
44
44
EE
ENDCHAR
STARTCHAR o
ENCODING 111
SWIDTH 576 0
DWIDTH 6 0
BBX 6 6 0 0
BITMAP
30
48
84
84
48
30
ENDCHAR
STARTCHAR p
ENCODING 112
SWIDTH 576 0
DWIDTH 6 0
BBX 6 9 0 -3
BITMAP
F0
48
48
48
48
70
40
40
E0
ENDCHAR
STARTCHAR q
ENCODING 113
SWIDTH 576 0
DWIDTH 6 0
BBX 7 9 0 -3
BITMAP
1C
24
24
24
24
1C
04
04
0E
ENDCHAR
STARTCHAR r
ENCODING 114
SWIDTH 384 0
DWIDTH 4 0
BBX 4 6 0 0
BITMAP
B0
40
40
40
40
E0
ENDCHAR
STARTCHAR s
ENCODING 115
SWIDTH 480 0
DWIDTH 5 0
BBX 4 6 1 0
BITMAP
70
90
C0
30
90
E0
ENDCHAR
STARTCHAR t
ENCODING 116
SWIDTH 384 0
DWIDTH 4 0
BBX 3 8 0 0
BITMAP
40
40
E0
40
40
40
40
60
ENDCHAR
STARTCHAR u
ENCODING 117
SWIDTH 576 0
DWIDTH 6 0
BBX 7 6 0 0
BITMAP
CC
44
44
44
4C
36
ENDCHAR
STARTCHAR v
ENCODING 118
SWIDTH 576 0
DWIDTH 6 0
BBX 6 6 0 0
BITMAP
EC
44
68
28
28
10
ENDCHAR
STARTCHAR w
ENCODING 119
SWIDTH 864 0
DWIDTH 9 0
BBX 9 6 0 0
BITMAP
DD80
4880
4D00
4D00
3600
2200
ENDCHAR
STARTCHAR x
ENCODING 120
SWIDTH 576 0
DWIDTH 6 0
BBX 6 6 0 0
BITMAP
EC
48
30
30
48
DC
ENDCHAR
STARTCHAR y
ENCODING 121
SWIDTH 576 0
DWIDTH 6 0
BBX 6 9 0 -3
BITMAP
EC
44
48
28
28
10
10
10
60
ENDCHAR
STARTCHAR z
ENCODING 122
SWIDTH 576 0
DWIDTH 6 0
BBX 6 6 1 0
BITMAP
F8
90
20
20
48
F8
ENDCHAR
STARTCHAR braceleft
ENCODING 123
SWIDTH 576 0
DWIDTH 6 0
BBX 3 12 2 -3
BITMAP
20
40
40
40
40
80
80
40
40
40
40
20
ENDCHAR
STARTCHAR bar
ENCODING 124
SWIDTH 288 0
DWIDTH 3 0
BBX 1 12 1 -3
BITMAP
80
80
80
80
80
80
80
80
80
80
80
80
ENDCHAR
STARTCHAR braceright
ENCODING 125
SWIDTH 576 0
DWIDTH 6 0
BBX 3 12 2 -3
BITMAP
80
40
40
40
40
20
20
40
40
40
40
80
ENDCHAR
STARTCHAR asciitilde
ENCODING 126
SWIDTH 672 0
DWIDTH 7 0
BBX 7 2 0 3
BITMAP
64
98
ENDCHAR
STARTCHAR C001122
ENCODING 133
SWIDTH 1248 0
DWIDTH 13 0
BBX 11 1 1 0
BITMAP
8420
ENDCHAR
STARTCHAR C001107
ENCODING 145
SWIDTH 384 0
DWIDTH 4 0
BBX 2 3 1 6
BITMAP
40
80
C0
ENDCHAR
STARTCHAR C001110
ENCODING 146
SWIDTH 384 0
DWIDTH 4 0
BBX 2 3 1 6
BITMAP
C0
40
80
ENDCHAR
STARTCHAR C001113
ENCODING 147
SWIDTH 576 0
DWIDTH 6 0
BBX 5 3 0 6
BITMAP
48
90
D8
ENDCHAR
STARTCHAR C001114
ENCODING 148
SWIDTH 576 0
DWIDTH 6 0
BBX 4 3 1 7
BITMAP
F0
50
A0
ENDCHAR
STARTCHAR C001121
ENCODING 149
SWIDTH 480 0
DWIDTH 5 0
BBX 3 3 1 3
BITMAP
E0
E0
E0
ENDCHAR
STARTCHAR C001103
ENCODING 150
SWIDTH 576 0
DWIDTH 6 0
BBX 6 1 0 3
BITMAP
FC
ENDCHAR
STARTCHAR C001104
ENCODING 151
SWIDTH 1248 0
DWIDTH 13 0
BBX 13 1 0 3
BITMAP
FFF8
ENDCHAR
STARTCHAR exclamdown
ENCODING 161
SWIDTH 768 0
DWIDTH 8 0
BBX 6 8 1 0
BITMAP
78
84
44
84
84
84
84
84
ENDCHAR
STARTCHAR cent
ENCODING 162
SWIDTH 768 0
DWIDTH 8 0
BBX 6 8 1 0
BITMAP
44
A4
E4
64
24
24
24
18
ENDCHAR
STARTCHAR sterling
ENCODING 163
SWIDTH 864 0
DWIDTH 9 0
BBX 7 8 1 0
BITMAP
52
72
92
B2
72
12
12
0C
ENDCHAR
STARTCHAR currency
ENCODING 164
SWIDTH 768 0
DWIDTH 8 0
BBX 6 8 1 0
BITMAP
78
CC
84
B4
D4
44
44
44
ENDCHAR
STARTCHAR yen
ENCODING 165
SWIDTH 768 0
DWIDTH 8 0
BBX 6 8 1 0
BITMAP
68
D4
84
B4
D4
44
44
44
ENDCHAR
STARTCHAR brokenbar
ENCODING 166
SWIDTH 960 0
DWIDTH 10 0
BBX 7 8 1 0
BITMAP
52
B2
92
B2
72
1A
36
32
ENDCHAR
STARTCHAR section
ENCODING 167
SWIDTH 576 0
DWIDTH 6 0
BBX 4 8 1 0
BITMAP
30
50
30
10
90
50
30
10
ENDCHAR
STARTCHAR diaeresis
ENCODING 168
SWIDTH 672 0
DWIDTH 7 0
BBX 5 8 1 0
BITMAP
60
98
48
A8
68
28
28
10
ENDCHAR
STARTCHAR copyright
ENCODING 169
SWIDTH 864 0
DWIDTH 9 0
BBX 6 8 1 0
BITMAP
70
88
48
A8
48
58
74
48
ENDCHAR
STARTCHAR ordfeminine
ENCODING 170
SWIDTH 768 0
DWIDTH 8 0
BBX 7 8 1 0
BITMAP
42
A4
F8
64
24
24
24
78
ENDCHAR
STARTCHAR guillemotleft
ENCODING 171
SWIDTH 864 0
DWIDTH 9 0
BBX 8 8 1 0
BITMAP
51
B2
9C
B2
52
12
12
1C
ENDCHAR
STARTCHAR notsign
ENCODING 172
SWIDTH 960 0
DWIDTH 10 0
BBX 8 8 1 0
BITMAP
71
89
69
89
89
DD
AB
59
ENDCHAR
STARTCHAR hyphen
ENCODING 173
SWIDTH 960 0
DWIDTH 10 0
BBX 8 12 1 -4
BITMAP
71
89
E9
89
89
C9
A9
46
00
0D
09
06
ENDCHAR
STARTCHAR registered
ENCODING 174
SWIDTH 768 0
DWIDTH 8 0
BBX 6 12 1 -4
BITMAP
78
8C
E4
44
44
44
C4
C4
14
74
6C
04
ENDCHAR
STARTCHAR macron
ENCODING 175
SWIDTH 768 0
DWIDTH 8 0
BBX 6 12 1 -4
BITMAP
78
8C
E4
44
44
44
C4
C4
14
64
BC
54
ENDCHAR
STARTCHAR degree
ENCODING 176
SWIDTH 768 0
DWIDTH 8 0
BBX 7 11 0 -3
BITMAP
3A
74
48
24
74
14
14
08
4C
D4
AC
ENDCHAR
STARTCHAR plusminus
ENCODING 177
SWIDTH 960 0
DWIDTH 10 0
BBX 8 8 1 0
BITMAP
53
F5
95
B5
59
19
11
11
ENDCHAR
STARTCHAR twosuperior
ENCODING 178
SWIDTH 960 0
DWIDTH 10 0
BBX 8 8 1 0
BITMAP
59
A5
85
B5
95
6D
57
49
ENDCHAR
STARTCHAR threesuperior
ENCODING 179
SWIDTH 1056 0
DWIDTH 11 0
BBX 8 8 1 0
BITMAP
72
8A
6A
8A
8A
CA
AF
4B
ENDCHAR
STARTCHAR acute
ENCODING 180
SWIDTH 768 0
DWIDTH 8 0
BBX 6 8 1 0
BITMAP
78
8C
A4
D4
B4
64
44
44
ENDCHAR
STARTCHAR mu
ENCODING 181
SWIDTH 768 0
DWIDTH 8 0
BBX 6 8 1 0
BITMAP
58
B4
A4
D4
A4
64
44
44
ENDCHAR
STARTCHAR paragraph
ENCODING 182
SWIDTH 768 0
DWIDTH 8 0
BBX 6 8 1 0
BITMAP
78
8C
64
84
84
C4
A4
44
ENDCHAR
STARTCHAR periodcentered
ENCODING 183
SWIDTH 864 0
DWIDTH 9 0
BBX 7 8 1 0
BITMAP
CC
CA
52
52
62
62
42
42
ENDCHAR
STARTCHAR cedilla
ENCODING 184
SWIDTH 768 0
DWIDTH 8 0
BBX 6 8 1 0
BITMAP
64
D8
E0
58
48
48
48
F0
ENDCHAR
STARTCHAR onesuperior
ENCODING 185
SWIDTH 864 0
DWIDTH 9 0
BBX 7 8 1 0
BITMAP
C4
C4
44
44
44
5C
6A
44
ENDCHAR
STARTCHAR masculine
ENCODING 186
SWIDTH 864 0
DWIDTH 9 0
BBX 7 8 1 0
BITMAP
C2
C2
42
42
42
42
42
7C
ENDCHAR
STARTCHAR guillemotright
ENCODING 187
SWIDTH 864 0
DWIDTH 9 0
BBX 7 13 1 0
BITMAP
02
02
02
02
02
C2
C2
42
42
42
42
42
7C
ENDCHAR
STARTCHAR onequarter
ENCODING 188
SWIDTH 768 0
DWIDTH 8 0
BBX 6 8 1 0
BITMAP
44
A4
C4
84
B4
CC
84
84
ENDCHAR
STARTCHAR onehalf
ENCODING 189
SWIDTH 768 0
DWIDTH 8 0
BBX 6 13 1 0
BITMAP
04
04
04
04
04
44
A4
C4
84
B4
CC
84
84
ENDCHAR
STARTCHAR threequarters
ENCODING 190
SWIDTH 864 0
DWIDTH 9 0
BBX 7 8 1 0
BITMAP
CA
DA
5A
56
66
66
42
42
ENDCHAR
STARTCHAR questiondown
ENCODING 191
SWIDTH 864 0
DWIDTH 9 0
BBX 7 13 1 0
BITMAP
02
02
02
02
02
CA
DA
5A
56
66
66
42
42
ENDCHAR
STARTCHAR Agrave
ENCODING 192
SWIDTH 768 0
DWIDTH 8 0
BBX 6 8 1 0
BITMAP
78
CC
E4
44
44
44
C4
C4
ENDCHAR
STARTCHAR Aacute
ENCODING 193
SWIDTH 768 0
DWIDTH 8 0
BBX 6 8 1 0
BITMAP
C4
C4
44
44
44
E4
D4
4C
ENDCHAR
STARTCHAR Acircumflex
ENCODING 194
SWIDTH 672 0
DWIDTH 7 0
BBX 5 8 1 0
BITMAP
68
E8
88
48
88
88
88
70
ENDCHAR
STARTCHAR Atilde
ENCODING 195
SWIDTH 672 0
DWIDTH 7 0
BBX 5 8 1 0
BITMAP
68
90
E0
10
10
30
50
20
ENDCHAR
STARTCHAR Adiaeresis
ENCODING 196
SWIDTH 768 0
DWIDTH 8 0
BBX 6 11 1 -3
BITMAP
78
8C
64
84
84
C4
A4
44
04
04
04
ENDCHAR
STARTCHAR Aring
ENCODING 197
SWIDTH 768 0
DWIDTH 8 0
BBX 6 8 1 0
BITMAP
78
8C
74
8C
84
C4
A4
44
ENDCHAR
STARTCHAR AE
ENCODING 198
SWIDTH 768 0
DWIDTH 8 0
BBX 6 11 1 -3
BITMAP
78
CC
E4
44
44
44
C4
C4
04
04
04
ENDCHAR
STARTCHAR Ccedilla
ENCODING 199
SWIDTH 672 0
DWIDTH 7 0
BBX 5 8 1 0
BITMAP
70
88
08
08
08
18
28
10
ENDCHAR
STARTCHAR Egrave
ENCODING 200
SWIDTH 768 0
DWIDTH 8 0
BBX 7 9 1 0
BITMAP
02
7A
CC
8C
B4
F4
44
44
44
ENDCHAR
STARTCHAR Eacute
ENCODING 201
SWIDTH 864 0
DWIDTH 9 0
BBX 6 8 1 0
BITMAP
C4
C4
44
54
64
5C
44
78
ENDCHAR
STARTCHAR Ecircumflex
ENCODING 202
SWIDTH 864 0
DWIDTH 9 0
BBX 7 9 1 0
BITMAP
02
7A
CC
3C
44
44
64
54
24
ENDCHAR
STARTCHAR Ediaeresis
ENCODING 203
SWIDTH 864 0
DWIDTH 9 0
BBX 7 8 1 0
BITMAP
C4
CA
4C
52
62
42
42
42
ENDCHAR
STARTCHAR Igrave
ENCODING 204
SWIDTH 864 0
DWIDTH 9 0
BBX 8 8 1 0
BITMAP
C6
D5
52
5A
5A
66
66
42
ENDCHAR
STARTCHAR Iacute
ENCODING 205
SWIDTH 768 0
DWIDTH 8 0
BBX 6 8 1 0
BITMAP
78
8C
24
54
64
44
44
38
ENDCHAR
STARTCHAR Icircumflex
ENCODING 206
SWIDTH 672 0
DWIDTH 7 0
BBX 5 8 1 0
BITMAP
E8
F0
48
A8
C8
88
88
70
ENDCHAR
STARTCHAR Idiaeresis
ENCODING 207
SWIDTH 768 0
DWIDTH 8 0
BBX 5 8 1 0
BITMAP
10
58
A8
48
08
08
08
08
ENDCHAR
STARTCHAR ETH
ENCODING 208
SWIDTH 672 0
DWIDTH 7 0
BBX 6 8 1 0
BITMAP
44
A4
78
00
00
44
A4
78
ENDCHAR
STARTCHAR Ntilde
ENCODING 209
SWIDTH 0 0
DWIDTH 0 0
BBX 6 3 -5 9
BITMAP
44
A4
78
ENDCHAR
STARTCHAR Ograve
ENCODING 210
SWIDTH 576 0
DWIDTH 6 0
BBX 4 8 1 0
BITMAP
60
90
10
10
10
10
10
10
ENDCHAR
STARTCHAR Oacute
ENCODING 211
SWIDTH 576 0
DWIDTH 6 0
BBX 8 13 -3 0
BITMAP
40
A0
40
00
00
06
09
01
01
01
01
01
01
ENDCHAR
STARTCHAR Ocircumflex
ENCODING 212
SWIDTH 0 0
DWIDTH 0 0
BBX 6 4 -6 9
BITMAP
70
88
FC
04
ENDCHAR
STARTCHAR Otilde
ENCODING 213
SWIDTH 0 0
DWIDTH 0 0
BBX 6 4 -7 9
BITMAP
74
8C
F4
0C
ENDCHAR
STARTCHAR Odiaeresis
ENCODING 214
SWIDTH 0 0
DWIDTH 0 0
BBX 6 5 -7 9
BITMAP
0C
74
88
FC
04
ENDCHAR
STARTCHAR multiply
ENCODING 215
SWIDTH 0 0
DWIDTH 0 0
BBX 6 5 -7 9
BITMAP
14
74
8C
F4
0C
ENDCHAR
STARTCHAR Ooblique
ENCODING 216
SWIDTH 0 0
DWIDTH 0 0
BBX 3 3 -4 -4
BITMAP
60
60
20
ENDCHAR
STARTCHAR Ugrave
ENCODING 217
SWIDTH 0 0
DWIDTH 0 0
BBX 4 3 -5 -4
BITMAP
D0
D0
70
ENDCHAR
STARTCHAR Uacute
ENCODING 218
SWIDTH 0 0
DWIDTH 0 0
BBX 2 2 -3 -3
BITMAP
C0
C0
ENDCHAR
STARTCHAR Ucircumflex
ENCODING 219
SWIDTH 384 0
DWIDTH 4 0
BBX 0 0 0 0
BITMAP
ENDCHAR
STARTCHAR Udiaeresis
ENCODING 220
SWIDTH 384 0
DWIDTH 4 0
BBX 4 2 0 -2
BITMAP
F0
90
ENDCHAR
STARTCHAR ssharp
ENCODING 223
SWIDTH 864 0
DWIDTH 9 0
BBX 7 10 1 0
BITMAP
10
F8
54
54
78
56
52
56
FC
10
ENDCHAR
STARTCHAR agrave
ENCODING 224
SWIDTH 384 0
DWIDTH 4 0
BBX 3 8 1 0
BITMAP
80
80
80
80
80
C0
A0
40
ENDCHAR
STARTCHAR aacute
ENCODING 225
SWIDTH 672 0
DWIDTH 7 0
BBX 7 8 1 0
BITMAP
88
88
88
88
88
CC
AA
44
ENDCHAR
STARTCHAR acircumflex
ENCODING 226
SWIDTH 672 0
DWIDTH 7 0
BBX 5 13 1 0
BITMAP
E0
98
60
10
10
10
10
10
10
10
10
28
10
ENDCHAR
STARTCHAR atilde
ENCODING 227
SWIDTH 576 0
DWIDTH 6 0
BBX 4 13 1 0
BITMAP
40
E0
A0
60
20
20
20
20
20
20
20
50
20
ENDCHAR
STARTCHAR adiaeresis
ENCODING 228
SWIDTH 672 0
DWIDTH 7 0
BBX 5 14 1 0
BITMAP
80
B0
B0
B0
50
10
10
10
10
10
10
10
28
10
ENDCHAR
STARTCHAR aring
ENCODING 229
SWIDTH 576 0
DWIDTH 6 0
BBX 4 11 1 -3
BITMAP
60
90
10
10
10
10
10
10
10
10
10
ENDCHAR
STARTCHAR ae
ENCODING 230
SWIDTH 768 0
DWIDTH 8 0
BBX 6 11 1 -3
BITMAP
58
E4
84
A4
64
04
04
04
04
04
04
ENDCHAR
STARTCHAR ccedilla
ENCODING 231
SWIDTH 0 0
DWIDTH 0 0
BBX 5 6 -6 9
BITMAP
08
08
70
80
E8
58
ENDCHAR
STARTCHAR egrave
ENCODING 232
SWIDTH 0 0
DWIDTH 0 0
BBX 1 2 -2 14
BITMAP
80
80
ENDCHAR
STARTCHAR eacute
ENCODING 233
SWIDTH 0 0
DWIDTH 0 0
BBX 4 4 -3 15
BITMAP
10
D0
50
E0
ENDCHAR
STARTCHAR ecircumflex
ENCODING 234
SWIDTH 0 0
DWIDTH 0 0
BBX 5 3 -5 15
BITMAP
68
98
50
ENDCHAR
STARTCHAR ediaeresis
ENCODING 235
SWIDTH 0 0
DWIDTH 0 0
BBX 3 3 -4 14
BITMAP
40
E0
40
ENDCHAR
STARTCHAR igrave
ENCODING 236
SWIDTH 0 0
DWIDTH 0 0
BBX 4 4 -2 13
BITMAP
10
60
C0
60
ENDCHAR
STARTCHAR iacute
ENCODING 237
SWIDTH 0 0
DWIDTH 0 0
BBX 3 3 -4 9
BITMAP
40
A0
40
ENDCHAR
STARTCHAR icircumflex
ENCODING 238
SWIDTH 0 0
DWIDTH 0 0
BBX 4 5 -4 9
BITMAP
30
40
60
80
E0
ENDCHAR
STARTCHAR idiaeresis
ENCODING 239
SWIDTH 864 0
DWIDTH 9 0
BBX 6 7 1 0
BITMAP
30
48
B4
B4
B4
48
30
ENDCHAR
STARTCHAR eth
ENCODING 240
SWIDTH 768 0
DWIDTH 8 0
BBX 6 6 1 0
BITMAP
30
48
84
84
48
30
ENDCHAR
STARTCHAR ntilde
ENCODING 241
SWIDTH 768 0
DWIDTH 8 0
BBX 6 6 1 0
BITMAP
70
C8
B4
B4
54
28
ENDCHAR
STARTCHAR ograve
ENCODING 242
SWIDTH 1056 0
DWIDTH 11 0
BBX 9 9 1 0
BITMAP
8000
8000
8000
9B00
A680
AC80
9880
8080
7F00
ENDCHAR
STARTCHAR oacute
ENCODING 243
SWIDTH 960 0
DWIDTH 10 0
BBX 8 6 1 0
BITMAP
76
89
89
C9
A9
52
ENDCHAR
STARTCHAR ocircumflex
ENCODING 244
SWIDTH 960 0
DWIDTH 10 0
BBX 8 9 1 0
BITMAP
01
01
02
3C
40
98
94
48
3F
ENDCHAR
STARTCHAR otilde
ENCODING 245
SWIDTH 960 0
DWIDTH 10 0
BBX 8 9 1 0
BITMAP
01
11
2A
3C
40
88
94
48
3F
ENDCHAR
STARTCHAR odiaeresis
ENCODING 246
SWIDTH 768 0
DWIDTH 8 0
BBX 6 9 1 0
BITMAP
80
40
40
70
48
04
64
68
38
ENDCHAR
STARTCHAR division
ENCODING 247
SWIDTH 1056 0
DWIDTH 11 0
BBX 9 9 1 0
BITMAP
0600
0300
0180
6C80
9280
9280
8280
B300
7600
ENDCHAR
STARTCHAR oslash
ENCODING 248
SWIDTH 960 0
DWIDTH 10 0
BBX 8 9 1 0
BITMAP
01
01
01
01
7E
80
86
76
4E
ENDCHAR
STARTCHAR ugrave
ENCODING 249
SWIDTH 768 0
DWIDTH 8 0
BBX 6 9 1 0
BITMAP
04
64
98
80
78
80
98
88
70
ENDCHAR
STARTCHAR uacute
ENCODING 250
SWIDTH 864 0
DWIDTH 9 0
BBX 8 8 0 0
BITMAP
09
4D
95
65
05
05
05
05
ENDCHAR
STARTCHAR ucircumflex
ENCODING 251
SWIDTH 1536 0
DWIDTH 16 0
BBX 15 7 1 0
BITMAP
3800
4400
8000
82A0
8354
4548
3800
ENDCHAR
STARTCHAR udiaeresis
ENCODING 252
SWIDTH 0 0
DWIDTH 0 0
BBX 3 3 -4 -8
BITMAP
60
60
20
ENDCHAR
STARTCHAR yacute
ENCODING 253
SWIDTH 0 0
DWIDTH 0 0
BBX 4 3 -5 -8
BITMAP
D0
D0
70
ENDCHAR
STARTCHAR thorn
ENCODING 254
SWIDTH 0 0
DWIDTH 0 0
BBX 2 2 -3 -7
BITMAP
C0
C0
ENDCHAR
ENDFONT
